<svg xmlns="http://www.w3.org/2000/svg" xmlns:xlink="http://www.w3.org/1999/xlink" width="14" height="17.396" viewBox="0 0 14 17.396">
  <defs>
    <clipPath id="clip-path">
      <rect id="Rectangle_10731" data-name="Rectangle 10731" width="14" height="17.396" fill="#fbfbfb"/>
    </clipPath>
  </defs>
  <g id="Group_85077" data-name="Group 85077" transform="translate(32 -242)">
    <g id="Group_85058" data-name="Group 85058" transform="translate(-32 242)">
      <g id="Group_85057" data-name="Group 85057" clip-path="url(#clip-path)">
        <path id="Path_161909" data-name="Path 161909" d="M29,10.268V8.36q0-3.7,0-7.4a.928.928,0,0,1,.639-.913.9.9,0,0,1,1.047.324,1.093,1.093,0,0,1,.19.56c.012,2.543.007,5.087.006,7.63,0,.553,0,1.106,0,1.7l.806-.582c.931-.674,1.86-1.351,2.795-2.021A.943.943,0,0,1,35.7,9.106c-.176.155-.375.283-.565.421q-2.285,1.656-4.572,3.311a.958.958,0,0,1-1.232,0Q26.815,11.023,24.3,9.2a.947.947,0,0,1-.264-1.3.933.933,0,0,1,1.342-.248c.8.566,1.589,1.147,2.383,1.722l1.24.9" transform="translate(-22.945 0)" fill="#fbfbfb"/>
        <path id="Path_161910" data-name="Path 161910" d="M7,395.16c2,0,4,.009,6-.006a.964.964,0,0,1,1,.936.945.945,0,0,1-1,.954H.976a.944.944,0,0,1-.964-.778.93.93,0,0,1,.674-1.072A1.154,1.154,0,0,1,1,395.162q3,0,6,0" transform="translate(0 -379.649)" fill="#fbfbfb"/>
      </g>
    </g>
  </g>
</svg>
