<?xml version="1.0" encoding="utf-8"?>
<!-- Generator: Adobe Illustrator 16.0.0, SVG Export Plug-In . SVG Version: 6.00 Build 0)  -->
<!DOCTYPE svg PUBLIC "-//W3C//DTD SVG 1.1//EN" "http://www.w3.org/Graphics/SVG/1.1/DTD/svg11.dtd">
<svg version="1.1" id="Layer_1" xmlns="http://www.w3.org/2000/svg" xmlns:xlink="http://www.w3.org/1999/xlink" x="0px" y="0px"
	 width="16.333px" height="17.5px" viewBox="0 774.5 16.333 17.5" enable-background="new 0 774.5 16.333 17.5"
	 xml:space="preserve">
<path fill="#FFFFFF" d="M16.011,783.895c0,0.501-0.418,0.894-0.891,0.894h-0.891l0.02,4.459c0,0.073-0.006,0.148-0.014,0.224v0.449
	c0,0.614-0.498,1.113-1.113,1.113h-0.445c-0.031,0-0.062,0-0.092-0.003c-0.039,0.003-0.078,0.003-0.117,0.003h-0.904h-0.668
	c-0.615,0-1.113-0.499-1.113-1.113v-0.669v-1.78c0-0.492-0.398-0.892-0.891-0.892H7.111c-0.493,0-0.891,0.399-0.891,0.892v1.78
	v0.669c0,0.614-0.498,1.113-1.113,1.113H4.439H3.551c-0.042,0-0.084-0.003-0.125-0.006c-0.034,0.003-0.067,0.006-0.101,0.006H2.88
	c-0.615,0-1.113-0.499-1.113-1.113v-3.117c0-0.025,0-0.054,0.003-0.078v-1.937H0.877c-0.501,0-0.891-0.39-0.891-0.894
	c0-0.25,0.083-0.473,0.278-0.669l7.136-6.219c0.195-0.195,0.417-0.224,0.612-0.224s0.417,0.057,0.584,0.195l7.107,6.247
	C15.927,783.422,16.038,783.645,16.011,783.895z"/>
</svg>
