<svg xmlns="http://www.w3.org/2000/svg" xmlns:xlink="http://www.w3.org/1999/xlink" width="24.209" height="22.873" viewBox="0 0 24.209 22.873">
  <defs>
    <clipPath id="clip-path">
      <rect id="Rectangle_74" data-name="Rectangle 74" width="24.209" height="22.873" fill="#fff"/>
    </clipPath>
  </defs>
  <g id="Group_85110" data-name="Group 85110" transform="translate(-78 -303)">
    <g id="Group_160" data-name="Group 160" transform="translate(78 303)">
      <g id="Group_159" data-name="Group 159" clip-path="url(#clip-path)">
        <path id="Path_72" data-name="Path 72" d="M12.085,0Q16.392,0,20.7,0A3.307,3.307,0,0,1,24.2,3.481q.01,5.935,0,11.87a3.324,3.324,0,0,1-3.392,3.5.465.465,0,0,1-.11,0,2.561,2.561,0,0,0-2.948,1.488,21.372,21.372,0,0,1-1.6,2.108c-.44.567-.678.572-1.112.013-.835-1.075-1.674-2.147-2.487-3.238a.86.86,0,0,0-.785-.378q-4.113.019-8.226,0A3.328,3.328,0,0,1,.091,16.262a3.925,3.925,0,0,1-.086-.928Q0,9.427,0,3.52A3.315,3.315,0,0,1,3.528,0q4.279,0,8.557,0" transform="translate(0 0)" fill="#fff"/>
        <path id="Path_73" data-name="Path 73" d="M166.322,66.556c.533,0,1.106-.2,1.416.352a1.032,1.032,0,0,1,0,.861c-.313.56-.888.324-1.413.34Z" transform="translate(-147.947 -59.172)" fill="#fff"/>
      </g>
    </g>
  </g>
</svg>
