<svg xmlns="http://www.w3.org/2000/svg" width="14.687" height="18.131" viewBox="0 0 14.687 18.131">
  <path id="Path_161916" data-name="Path 161916" d="M6.435,0c.106.025.212.048.317.074A2.7,2.7,0,0,1,8.793,2.9,2.624,2.624,0,0,1,8.18,4.4c-.022.027-.045.053-.066.081a.2.2,0,0,0-.016.041,5.771,5.771,0,0,1,.686.316,5.971,5.971,0,0,1,.957.681c.667.627,1.3,1.288,1.949,1.937A1.59,1.59,0,0,1,12.122,9.2a2.627,2.627,0,0,1-.446.692,3.581,3.581,0,0,1-.42.394l1.677,2.044c.371.453.745.9,1.111,1.36a1.319,1.319,0,0,1,.34.924,1.022,1.022,0,0,1-.939.938,3.534,3.534,0,0,1-.484.035q-1.93,0-3.86,0H8.869c0,.21,0,.411,0,.611a1.627,1.627,0,0,1-1.948,1.58,2.6,2.6,0,0,1-.7-.319A.163.163,0,0,0,6,17.47a1.636,1.636,0,0,1-2.61-.945,2.237,2.237,0,0,1-.041-.484q0-2.236,0-4.472v-.221c-.153.024-.291.053-.43.068a1.615,1.615,0,0,1-1.364-.509C1.2,10.563.864,10.215.517,9.873A1.983,1.983,0,0,1,0,8.911V8.423A2.4,2.4,0,0,1,.79,7.192c.521-.5,1.03-1.019,1.537-1.536a4.124,4.124,0,0,1,1.232-.887c.188-.086.379-.163.577-.248-.023-.031-.039-.055-.057-.076A2.685,2.685,0,0,1,5.278.132c.162-.055.331-.089.5-.132Zm1.39,10.054V9.867c0-.6,0-1.206,0-1.81a.52.52,0,0,1,.311-.517.5.5,0,0,1,.59.115c.218.208.433.42.64.639a.516.516,0,0,1,0,.761c-.106.115-.223.22-.328.335a.552.552,0,0,0-.15.5.566.566,0,0,0,.416.466.583.583,0,0,0,.6-.164q.525-.52,1.045-1.046a.6.6,0,0,0,0-.944C10.3,7.55,9.662,6.894,9,6.259a3.013,3.013,0,0,0-1.977-.864c-.607-.03-1.218-.029-1.825,0a2.946,2.946,0,0,0-1.926.816c-.694.657-1.36,1.346-2.033,2.026a.576.576,0,0,0-.006.867q.538.557,1.095,1.094a.59.59,0,1,0,.838-.83c-.11-.12-.232-.228-.339-.35a.5.5,0,0,1,0-.7c.217-.233.444-.458.675-.677a.486.486,0,0,1,.462-.14.541.541,0,0,1,.433.6c0,.586,0,1.172,0,1.757,0,.061.006.123.009.189ZM4.405,11.12v.186q0,2.383,0,4.767a1.608,1.608,0,0,0,.01.208.583.583,0,0,0,.688.479.6.6,0,0,0,.478-.668c0-1,0-2.006,0-3.01a2.73,2.73,0,0,1,.009-.3.526.526,0,0,1,.534-.489.537.537,0,0,1,.512.518c.006.1,0,.2,0,.3,0,1.021,0,2.041,0,3.062a.585.585,0,0,0,.777.567.619.619,0,0,0,.405-.643q0-2.418,0-4.836c0-.044-.006-.089-.01-.141Zm4.47,3.4H13.3l.031-.043L10.558,11.1a4.565,4.565,0,0,1-.826.3,4.441,4.441,0,0,1-.857-.022ZM6.11,4.32A1.617,1.617,0,0,0,7.743,2.688a1.631,1.631,0,1,0-3.263,0A1.63,1.63,0,0,0,6.11,4.32" transform="translate(0.15 0.15)" fill="#fbfbfb" stroke="#121212" stroke-linecap="round" stroke-linejoin="round" stroke-width="0.3"/>
</svg>
