<svg xmlns="http://www.w3.org/2000/svg" xmlns:xlink="http://www.w3.org/1999/xlink" width="94.923" height="31.055" viewBox="0 0 94.923 31.055">
  <defs>
    <radialGradient id="radial-gradient" cx="0.5" cy="0.5" r="0.5" gradientUnits="objectBoundingBox">
      <stop offset="0" stop-color="#fda729"/>
      <stop offset="1" stop-color="#fc551f"/>
    </radialGradient>
  </defs>
  <g id="Group_85042" data-name="Group 85042" transform="translate(-139.592 -21.041)">
    <circle id="Ellipse_944" data-name="Ellipse 944" cx="5.607" cy="5.607" r="5.607" transform="translate(177.642 36.569) rotate(-90)" fill="url(#radial-gradient)"/>
    <g id="Group_85041" data-name="Group 85041" transform="translate(139.592 21.041)">
      <path id="Union_22" data-name="Union 22" d="M1.613,22.35A5.314,5.314,0,0,1,0,18.592c0-.028,0-.057,0-.085,0-.009,0-.019,0-.029s0-.03,0-.045H0a1.872,1.872,0,0,1,1.883-1.782,1.87,1.87,0,0,1,1.885,1.855,1.839,1.839,0,0,1-.036.365,1.753,1.753,0,0,0,.486.872,1.782,1.782,0,0,0,1.311.533c.026,0,2.2,0,2.289,0a1.729,1.729,0,0,0,1.17-.529,1.782,1.782,0,0,0,.532-1.311V0h3.686V18.433A5.334,5.334,0,0,1,11.6,22.35,5.359,5.359,0,0,1,7.8,23.962H5.53A5.332,5.332,0,0,1,1.613,22.35Zm15.24-6.61a8.885,8.885,0,0,1-2.694-6.524,8.883,8.883,0,0,1,2.694-6.524A8.884,8.884,0,0,1,23.376,0,8.885,8.885,0,0,1,29.9,2.693a8.883,8.883,0,0,1,2.693,6.524A8.884,8.884,0,0,1,29.9,15.74a8.885,8.885,0,0,1-6.524,2.692A8.884,8.884,0,0,1,16.853,15.74ZM19.459,5.3a5.334,5.334,0,0,0-1.612,3.917,5.335,5.335,0,0,0,1.612,3.917,5.562,5.562,0,0,0,7.834,0,5.332,5.332,0,0,0,1.613-3.917A5.331,5.331,0,0,0,27.293,5.3a5.563,5.563,0,0,0-7.834,0Z" transform="translate(0 0.903)" fill="#fbfbfb"/>
      <path id="Union_23" data-name="Union 23" d="M9.673,19.559A9.877,9.877,0,0,1,.028,10.814c-.018-.233-.027-.468-.028-.7V10A9.616,9.616,0,0,1,8.495.416,61.224,61.224,0,0,1,15.575.207c.789.007,1.577.013,2.365.01a2.351,2.351,0,0,1,2.149,1.3,1.623,1.623,0,0,1-.524,2.305c-1.294.965-1.313,1.035-.7,2.481A9.638,9.638,0,0,1,9.7,19.559ZM4.367,10.106a5.6,5.6,0,0,0,5.642,5.305A5.451,5.451,0,0,0,15.141,9.66,5.027,5.027,0,0,0,9.892,4.546H9.81A5.457,5.457,0,0,0,4.367,10.106Zm25.4,9.417a9.982,9.982,0,0,1-9-8.366,9.952,9.952,0,0,1,5-9.647A9.387,9.387,0,0,1,36.453,2.3a9.786,9.786,0,0,1,3.87,6.425,2.606,2.606,0,0,0,.153.453v1.764c-.137.526-.258,1.053-.409,1.574a9.293,9.293,0,0,1-1.51,3.015H55.432a1.951,1.951,0,0,0,1.38-3.32,1.873,1.873,0,0,0-1.38-.561H47.668a5.617,5.617,0,0,1-4.125-1.7,5.614,5.614,0,0,1-1.7-4.125,5.616,5.616,0,0,1,1.7-4.125A5.614,5.614,0,0,1,47.668,0H59.314V3.882H47.668a1.917,1.917,0,0,0-1.942,1.94,1.918,1.918,0,0,0,1.942,1.941h7.764a5.8,5.8,0,0,1,5.823,5.823,5.8,5.8,0,0,1-5.823,5.823H32.068a10.288,10.288,0,0,1-1.654.134C30.2,19.543,29.986,19.535,29.77,19.523ZM25.216,9.793a5.423,5.423,0,0,0,5.261,5.619,5.544,5.544,0,0,0,5.492-5.438,5.45,5.45,0,0,0-5.461-5.438A5.05,5.05,0,0,0,25.216,9.793Z" transform="translate(33.669)" fill="#fbfbfb"/>
      <g id="Group_84905" data-name="Group 84905" transform="translate(33.594 19.271)">
        <path id="Union_21" data-name="Union 21" d="M6.084,11A9.927,9.927,0,0,1,2.917,8.867,9.931,9.931,0,0,1,0,1.824v-.1A1.978,1.978,0,0,1,2.156,0a1.78,1.78,0,0,1,1.95,1.725c0,.043,0,.086,0,.129a5.859,5.859,0,0,0,11.719-.031c0-.032,0-.066,0-.1h.008a1.825,1.825,0,0,1,2-1.725,1.919,1.919,0,0,1,2.1,1.725c0,.031,0,.062,0,.094v0A9.971,9.971,0,0,1,13.838,11a10,10,0,0,1-7.754,0Z" fill="#fbfbfb"/>
      </g>
    </g>
  </g>
</svg>
