<svg xmlns="http://www.w3.org/2000/svg" xmlns:xlink="http://www.w3.org/1999/xlink" width="47" height="24" viewBox="0 0 47 24">
  <defs>
    <clipPath id="clip-path">
      <rect id="Rectangle_10737" data-name="Rectangle 10737" width="16.114" height="16.867" fill="#fbfbfb"/>
    </clipPath>
  </defs>
  <g id="Group_85146" data-name="Group 85146" transform="translate(-95 -754)">
    <path id="Path_161918" data-name="Path 161918" d="M12,0H35a12,12,0,0,1,0,24H12A12,12,0,0,1,12,0Z" transform="translate(95 754)" fill="#383838"/>
    <g id="Group_85097" data-name="Group 85097">
      <g id="Group_85096" data-name="Group 85096" transform="translate(406.658 151.168)">
        <g id="Group_85095" data-name="Group 85095" transform="translate(-298 607)">
          <g id="Group_85094" data-name="Group 85094" clip-path="url(#clip-path)">
            <path id="Path_161930" data-name="Path 161930" d="M0,128.472c.067-.237.119-.48.2-.711a2.422,2.422,0,0,1,1.72-1.5c.929-.277,1.861-.544,2.791-.819.119-.035.21-.057.255.1.273.975.552,1.947.829,2.921a.82.82,0,0,1,.012.124l-1.925.553c-.124.036-.251.064-.371.11a.4.4,0,1,0,.253.749c.555-.15,1.107-.311,1.66-.468.2-.056.395-.116.627-.184l.239.826c-.529.152-1.029.3-1.531.44-.619.172-1.233.384-1.863.495a2.358,2.358,0,0,1-2.442-1.042A3.014,3.014,0,0,1,0,128.938v-.466m2.078,1.21a.4.4,0,1,0-.011.791.4.4,0,0,0,.011-.791" transform="translate(0 -118.904)" fill="#fbfbfb"/>
            <path id="Path_161931" data-name="Path 161931" d="M78.014,242.581a2.52,2.52,0,0,1-.438-.447c-.662-1.135-1.305-2.281-1.954-3.423-.029-.051-.057-.1-.1-.191.382-.115.746-.228,1.112-.335.633-.185.633-.184.962.391.072.126.142.253.222.394-.085.05-.166.092-.242.142a.36.36,0,0,0-.163.447.379.379,0,0,0,.393.274c.158,0,.373-.075.463,0a2.267,2.267,0,0,1,.363.559c-.071.047-.121.078-.168.111a.37.37,0,0,0-.177.485.422.422,0,0,0,.47.241c.352-.04.463.05.589.48a.454.454,0,0,1-.3.6c-.25.1-.511.181-.768.269Z" transform="translate(-71.596 -225.713)" fill="#fbfbfb"/>
            <path id="Path_161932" data-name="Path 161932" d="M111.632,11.025l-1.365-4.76c3.133-1.1,5.568-2.954,6.726-6.265l3.662,12.776a9.327,9.327,0,0,0-4.308-1.973,12.415,12.415,0,0,0-4.714.222" transform="translate(-104.541)" fill="#fbfbfb"/>
            <path id="Path_161933" data-name="Path 161933" d="M284.941,99.093l-.649-2.262a1.1,1.1,0,0,1,1.2.826,1.158,1.158,0,0,1-.553,1.436" transform="translate(-269.53 -91.787)" fill="#fbfbfb"/>
          </g>
        </g>
      </g>
    </g>
  </g>
</svg>
