<?xml version="1.0" encoding="utf-8"?>
<!-- Generator: Adobe Illustrator 16.0.0, SVG Export Plug-In . SVG Version: 6.00 Build 0)  -->
<!DOCTYPE svg PUBLIC "-//W3C//DTD SVG 1.1//EN" "http://www.w3.org/Graphics/SVG/1.1/DTD/svg11.dtd">
<svg version="1.1" id="Layer_1" xmlns="http://www.w3.org/2000/svg" xmlns:xlink="http://www.w3.org/1999/xlink" x="0px" y="0px"
	 width="47px" height="24px" viewBox="0 0 47 24" enable-background="new 0 0 47 24" xml:space="preserve">
<g id="Group_85146" transform="translate(-95 -754)">
	<g id="Group_85097">
		<g id="Group_85096" transform="translate(406.658 151.168)">
			<g id="Group_85095" transform="translate(-298 607)">
				<g>
					<defs>
						<rect id="SVGID_1_" x="0" width="16.113" height="16.867"/>
					</defs>
					<clipPath id="SVGID_2_">
						<use xlink:href="#SVGID_1_"  overflow="visible"/>
					</clipPath>
					<g id="Group_85094" clip-path="url(#SVGID_2_)">
						<path id="Path_161930" fill="#FBFBFB" d="M0,9.568c0.067-0.237,0.119-0.48,0.2-0.711c0.287-0.756,0.932-1.319,1.72-1.5
							C2.849,7.08,3.781,6.813,4.711,6.538c0.119-0.035,0.21-0.057,0.255,0.1c0.273,0.975,0.552,1.947,0.829,2.92
							C5.802,9.6,5.806,9.642,5.807,9.684l-1.925,0.553c-0.124,0.035-0.251,0.063-0.371,0.109c-0.218,0.038-0.363,0.245-0.326,0.463
							c0.038,0.218,0.245,0.363,0.463,0.326c0.04-0.008,0.08-0.021,0.116-0.04c0.555-0.149,1.107-0.311,1.66-0.468
							c0.2-0.057,0.395-0.116,0.627-0.184L6.29,11.27c-0.529,0.151-1.029,0.299-1.531,0.439c-0.619,0.172-1.233,0.384-1.863,0.495
							c-0.951,0.188-1.919-0.226-2.442-1.042C0.228,10.82,0.073,10.438,0,10.034V9.568 M2.078,10.777
							c-0.218-0.035-0.424,0.112-0.459,0.33c-0.036,0.219,0.111,0.424,0.33,0.46c0.039,0.007,0.08,0.007,0.119,0.001
							c0.219-0.029,0.372-0.23,0.342-0.449C2.385,10.945,2.251,10.807,2.078,10.777"/>
						<path id="Path_161931" fill="#FBFBFB" d="M6.418,16.868c-0.164-0.13-0.312-0.28-0.438-0.447
							c-0.662-1.135-1.305-2.28-1.954-3.423c-0.029-0.051-0.057-0.1-0.1-0.191c0.382-0.115,0.746-0.228,1.112-0.334
							C5.671,12.287,5.671,12.288,6,12.863c0.072,0.126,0.142,0.253,0.222,0.394c-0.085,0.05-0.166,0.093-0.242,0.142
							c-0.159,0.088-0.229,0.279-0.163,0.447c0.049,0.174,0.213,0.288,0.393,0.274c0.158,0,0.373-0.075,0.463,0
							c0.148,0.167,0.27,0.355,0.363,0.559c-0.071,0.048-0.121,0.078-0.168,0.111c-0.181,0.087-0.259,0.302-0.177,0.485
							c0.081,0.18,0.276,0.28,0.47,0.24c0.352-0.039,0.463,0.051,0.589,0.48c0.09,0.234-0.027,0.496-0.261,0.587
							c-0.013,0.005-0.026,0.009-0.04,0.013c-0.25,0.1-0.511,0.182-0.768,0.27L6.418,16.868z"/>
						<path id="Path_161932" fill="#FBFBFB" d="M7.091,11.025l-1.365-4.76c3.133-1.1,5.568-2.954,6.726-6.265l3.662,12.775
							c-1.242-1.018-2.726-1.696-4.308-1.973C10.235,10.575,8.635,10.65,7.091,11.025"/>
						<path id="Path_161933" fill="#FBFBFB" d="M15.41,7.306l-0.648-2.262c0.551-0.067,1.066,0.287,1.2,0.826
							c0.206,0.55-0.031,1.167-0.554,1.436"/>
					</g>
				</g>
			</g>
		</g>
	</g>
</g>
</svg>
