<?xml version="1.0" encoding="utf-8"?>
<!-- Generator: Adobe Illustrator 16.0.0, SVG Export Plug-In . SVG Version: 6.00 Build 0)  -->
<!DOCTYPE svg PUBLIC "-//W3C//DTD SVG 1.1//EN" "http://www.w3.org/Graphics/SVG/1.1/DTD/svg11.dtd">
<svg version="1.1" id="Layer_1" xmlns="http://www.w3.org/2000/svg" xmlns:xlink="http://www.w3.org/1999/xlink" x="0px" y="0px"
	 width="612px" height="792px" viewBox="0 0 612 792" enable-background="new 0 0 612 792" xml:space="preserve">
<path fill="#FFFFFF" d="M0,396C0,227.001,137.001,90,306,90s306,137.001,306,306S474.999,702,306,702S0,564.999,0,396z
	 M225.077,265.831c-9.084,5.02-14.702,14.702-14.702,24.982v210.375c0,10.399,5.618,19.962,14.702,24.982
	c9.084,5.02,20.082,4.9,29.046-0.598l172.125-105.188c8.487-5.26,13.746-14.464,13.746-24.504s-5.259-19.245-13.746-24.504
	L254.124,266.189c-8.845-5.379-19.962-5.618-29.046-0.598V265.831z"/>
</svg>
