<svg xmlns="http://www.w3.org/2000/svg" xmlns:xlink="http://www.w3.org/1999/xlink" width="28.666" height="21.091" viewBox="0 0 28.666 21.091">
  <defs>
    <clipPath id="clip-path">
      <rect id="Rectangle_76" data-name="Rectangle 76" width="28.666" height="21.091" fill="#fbfbfb"/>
    </clipPath>
  </defs>
  <g id="Group_85111" data-name="Group 85111" transform="translate(17 -335)">
    <g id="Group_165" data-name="Group 165" transform="translate(-17 335)">
      <g id="Group_164" data-name="Group 164" clip-path="url(#clip-path)">
        <path id="Path_82" data-name="Path 82" d="M21.6,1.335H12.287c-.506,0-.79-.2-.829-.594a.637.637,0,0,1,.59-.719c.219-.018.44-.021.66-.021Q18.555,0,24.4,0a4.081,4.081,0,0,1,3.651,1.9,3.9,3.9,0,0,1,.606,1.862c.051.647-.2.93-.852.932q-2.7.006-5.394,0h-.444v.52q0,5.842,0,11.684a4.026,4.026,0,0,1-4.211,4.191q-6.874,0-13.747,0A4.047,4.047,0,0,1,0,17.186a.693.693,0,0,1,.734-.779c.081,0,.162,0,.244,0h13.33c.733,0,.87.119.958.83A2.685,2.685,0,0,0,19.5,19.269a2.518,2.518,0,0,0,1.138-2.189c0-4.2.009-8.392,0-12.588a4.5,4.5,0,0,1,.905-2.99.778.778,0,0,0,.066-.167" transform="translate(0 0.001)" fill="#fbfbfb"/>
        <path id="Path_83" data-name="Path 83" d="M78.556,100.854c-.548-.534-1.077-1.048-1.605-1.564-.505-.494-.365-.488-.86,0-.472.463-.934.935-1.4,1.4-.062.062-.136.112-.24.2V93.519a4.358,4.358,0,0,0,4.107.018Z" transform="translate(-69.253 -86.992)" fill="#fbfbfb"/>
        <path id="Path_84" data-name="Path 84" d="M66.446,6.306a2.825,2.825,0,0,1-2.831-2.788,2.813,2.813,0,0,1,5.625-.027,2.8,2.8,0,0,1-2.794,2.815" transform="translate(-59.175 -0.644)" fill="#fbfbfb"/>
        <path id="Path_85" data-name="Path 85" d="M167.345,100.8q-1.424,0-2.849,0a1.953,1.953,0,0,1-.415-.027.508.508,0,0,1-.431-.516.52.52,0,0,1,.447-.54,2.443,2.443,0,0,1,.484-.029q2.779,0,5.559,0c.116,0,.231.007.346.016.372.031.6.233.609.534a.568.568,0,0,1-.625.553c-.764.016-1.529.009-2.293.011h-.834" transform="translate(-152.229 -92.729)" fill="#fbfbfb"/>
        <path id="Path_86" data-name="Path 86" d="M167.276,134.249c-1.008,0-2.016,0-3.024,0-.429,0-.681-.215-.685-.567,0-.3.244-.532.645-.533q3.093-.011,6.187,0a.562.562,0,0,1,.62.562.586.586,0,0,1-.649.533c-1.031,0-2.062,0-3.093,0" transform="translate(-152.15 -123.85)" fill="#fbfbfb"/>
        <path id="Path_87" data-name="Path 87" d="M167.875,67.464h-3.057c-.257,0-.518-.049-.6-.313a.685.685,0,0,1,.058-.538.7.7,0,0,1,.5-.243c2.061-.017,4.123-.015,6.184-.008a.579.579,0,0,1,.642.545c0,.32-.265.553-.665.555-1.019.006-2.038,0-3.057,0" transform="translate(-152.728 -61.725)" fill="#fbfbfb"/>
      </g>
    </g>
  </g>
</svg>
