<?xml version="1.0" encoding="utf-8"?>
<!-- Generator: Adobe Illustrator 16.0.0, SVG Export Plug-In . SVG Version: 6.00 Build 0)  -->
<!DOCTYPE svg PUBLIC "-//W3C//DTD SVG 1.1//EN" "http://www.w3.org/Graphics/SVG/1.1/DTD/svg11.dtd">
<svg version="1.1" id="Layer_1" xmlns="http://www.w3.org/2000/svg" xmlns:xlink="http://www.w3.org/1999/xlink" x="0px" y="0px"
	 width="612px" height="792px" viewBox="0 0 612 792" enable-background="new 0 0 612 792" xml:space="preserve">
<path fill="#FFFFFF" d="M344.25,128.25C344.25,107.093,327.157,90,306,90s-38.25,17.093-38.25,38.25v290.103l-87.736-87.736
	c-14.941-14.941-39.207-14.941-54.148,0s-14.941,39.207,0,54.148l153,153c14.941,14.941,39.206,14.941,54.147,0l153-153
	c14.941-14.941,14.941-39.207,0-54.148s-39.206-14.941-54.147,0l-87.616,87.736V128.25z M76.5,510.75
	c-42.194,0-76.5,34.306-76.5,76.5v38.25C0,667.694,34.306,702,76.5,702h459c42.194,0,76.5-34.306,76.5-76.5v-38.25
	c0-42.194-34.306-76.5-76.5-76.5H414.176l-54.147,54.147c-29.883,29.883-78.293,29.883-108.176,0l-54.028-54.147H76.5z
	 M516.375,577.688c15.844,0,28.688,12.844,28.688,28.688s-12.844,28.688-28.688,28.688s-28.688-12.844-28.688-28.688
	S500.531,577.688,516.375,577.688z"/>
</svg>
